<svg xmlns="http://www.w3.org/2000/svg" xmlns:xlink="http://www.w3.org/1999/xlink" viewBox="0 0 2806.09 2778.24"><defs><style>.cls-1{isolation:isolate;}.cls-2{fill:#bdd0fb;}.cls-24,.cls-3,.cls-30{fill:#fff;}.cls-3{mix-blend-mode:soft-light;}.cls-4{fill:#91b3fa;}.cls-5{fill:url(#linear-gradient);}.cls-6{fill:#fcfcfc;}.cls-7{fill:url(#linear-gradient-2);}.cls-8{opacity:0.3;}.cls-9{fill:url(#linear-gradient-3);}.cls-10{fill:url(#linear-gradient-4);}.cls-11{fill:url(#linear-gradient-5);}.cls-12{fill:url(#linear-gradient-6);}.cls-13{fill:url(#linear-gradient-7);}.cls-14{fill:url(#linear-gradient-8);}.cls-15{fill:url(#linear-gradient-9);}.cls-16{fill:url(#linear-gradient-10);}.cls-17{fill:url(#linear-gradient-11);}.cls-18{fill:url(#linear-gradient-12);}.cls-19{fill:url(#linear-gradient-13);}.cls-20{fill:url(#linear-gradient-14);}.cls-21{fill:url(#linear-gradient-15);}.cls-22{fill:url(#linear-gradient-16);}.cls-23{fill:url(#linear-gradient-17);}.cls-25{fill:url(#linear-gradient-18);}.cls-26{fill:url(#linear-gradient-19);}.cls-27{fill:url(#linear-gradient-20);}.cls-28{fill:url(#linear-gradient-21);}.cls-29{fill:url(#linear-gradient-22);}.cls-30{opacity:0.58;}.cls-31{fill:url(#linear-gradient-23);}.cls-32{fill:url(#linear-gradient-24);}.cls-33{fill:url(#linear-gradient-25);}.cls-34{fill:url(#linear-gradient-26);}.cls-35{fill:url(#linear-gradient-27);}.cls-36{fill:url(#linear-gradient-28);}.cls-37{fill:url(#linear-gradient-29);}.cls-38{fill:url(#linear-gradient-30);}.cls-39{fill:url(#linear-gradient-31);}.cls-40{fill:url(#linear-gradient-32);}.cls-41{fill:url(#linear-gradient-33);}.cls-42{fill:url(#linear-gradient-34);}.cls-43{fill:url(#linear-gradient-35);}.cls-44{fill:url(#linear-gradient-36);}.cls-45{fill:url(#linear-gradient-37);}.cls-46{fill:url(#linear-gradient-38);}.cls-47{fill:url(#linear-gradient-39);}.cls-48{fill:url(#linear-gradient-40);}.cls-49{fill:url(#linear-gradient-41);}.cls-50{fill:url(#linear-gradient-42);}.cls-51{fill:url(#linear-gradient-43);}.cls-52{fill:url(#linear-gradient-44);}.cls-53{fill:url(#linear-gradient-45);}.cls-54{fill:url(#linear-gradient-46);}.cls-55{fill:url(#linear-gradient-47);}</style><linearGradient id="linear-gradient" x1="-159.25" y1="6336.71" x2="2179.03" y2="-1565.05" gradientTransform="matrix(-1, 0, 0, 1, 3686.08, 0)" gradientUnits="userSpaceOnUse"><stop offset="0" stop-color="#4f52ff"/><stop offset="1" stop-color="#4042e2"/></linearGradient><linearGradient id="linear-gradient-2" x1="1457.14" y1="4728.53" x2="3767.74" y2="-3079.65" xlink:href="#linear-gradient"/><linearGradient id="linear-gradient-3" x1="1593.69" y1="1929.93" x2="1626.25" y2="1918.64" gradientUnits="userSpaceOnUse"><stop offset="0" stop-color="#febbba"/><stop offset="1" stop-color="#ff928e"/></linearGradient><linearGradient id="linear-gradient-4" x1="1825.47" y1="1990.6" x2="2299.68" y2="1473.69" gradientUnits="userSpaceOnUse"><stop offset="0" stop-color="#09005d"/><stop offset="1" stop-color="#1a0f91"/></linearGradient><linearGradient id="linear-gradient-5" x1="2041.95" y1="2189.18" x2="2516.15" y2="1672.28" xlink:href="#linear-gradient-4"/><linearGradient id="linear-gradient-6" x1="996.01" y1="1629.84" x2="947.54" y2="1484.45" gradientTransform="translate(1290.1)" xlink:href="#linear-gradient-3"/><linearGradient id="linear-gradient-7" x1="2149.53" y1="1381.3" x2="2323.72" y2="1457.03" xlink:href="#linear-gradient-3"/><linearGradient id="linear-gradient-8" x1="5027.63" y1="5584.33" x2="5235.71" y2="5584.33" gradientTransform="matrix(-0.69, -0.73, -0.73, 0.69, 9787.37, 1318.79)" xlink:href="#linear-gradient-4"/><linearGradient id="linear-gradient-9" x1="2138.68" y1="1406.27" x2="2312.86" y2="1482" xlink:href="#linear-gradient-3"/><linearGradient id="linear-gradient-10" x1="2273.45" y1="3244.53" x2="2489.93" y2="3244.53" gradientTransform="matrix(-1, 0, 0, 1, 4753.76, 0)" xlink:href="#linear-gradient"/><linearGradient id="linear-gradient-11" x1="3002.81" y1="3042" x2="2218.98" y2="3265.41" xlink:href="#linear-gradient-4"/><linearGradient id="linear-gradient-12" x1="2293.44" y1="3142.87" x2="2354.41" y2="3142.87" gradientTransform="matrix(-1, 0, 0, 1, 4753.76, 0)" xlink:href="#linear-gradient-3"/><linearGradient id="linear-gradient-13" x1="1841.89" y1="3239.86" x2="1924.85" y2="3239.86" gradientTransform="matrix(-1, 0, 0, 1, 4753.76, 0)" xlink:href="#linear-gradient"/><linearGradient id="linear-gradient-14" x1="2565.84" y1="2996.59" x2="3054.31" y2="3314.67" xlink:href="#linear-gradient-4"/><linearGradient id="linear-gradient-15" x1="1905.79" y1="3092.04" x2="1978.66" y2="3092.04" gradientTransform="matrix(-1, 0, 0, 1, 4753.76, 0)" xlink:href="#linear-gradient-3"/><linearGradient id="linear-gradient-16" x1="-437.49" y1="3199.04" x2="674.48" y2="1661.68" gradientTransform="matrix(-1, 0, 0, 1, 2420.76, 0)" xlink:href="#linear-gradient-4"/><linearGradient id="linear-gradient-17" x1="2477.36" y1="2182.86" x2="2504.33" y2="2378.39" gradientUnits="userSpaceOnUse"><stop offset="0" stop-color="#e1473d"/><stop offset="1" stop-color="#e9605a"/></linearGradient><linearGradient id="linear-gradient-18" x1="27.6" y1="2902.5" x2="24.6" y2="2829.62" gradientTransform="translate(1990 -609.6) rotate(-7.3)" xlink:href="#linear-gradient-17"/><linearGradient id="linear-gradient-19" x1="23.8" y1="2793.09" x2="38.83" y2="3001.94" gradientTransform="translate(1990 -609.6) rotate(-7.3)" xlink:href="#linear-gradient-17"/><linearGradient id="linear-gradient-20" x1="230.63" y1="2894.14" x2="227.62" y2="2821.26" gradientTransform="translate(1990 -609.6) rotate(-7.3)" xlink:href="#linear-gradient-17"/><linearGradient id="linear-gradient-21" x1="226.28" y1="2778.53" x2="241.31" y2="2987.39" gradientTransform="translate(1990 -609.6) rotate(-7.3)" xlink:href="#linear-gradient-17"/><linearGradient id="linear-gradient-22" x1="142.88" y1="2676.84" x2="122.6" y2="2825.57" gradientTransform="translate(1990 -609.6) rotate(-7.3)" gradientUnits="userSpaceOnUse"><stop offset="0" stop-color="#ff928e"/><stop offset="1" stop-color="#fe7062"/></linearGradient><linearGradient id="linear-gradient-23" x1="2498.18" y1="2570.29" x2="2495.93" y2="2311.84" gradientTransform="matrix(1, 0, 0, 1, 0, 0)" xlink:href="#linear-gradient-22"/><linearGradient id="linear-gradient-24" x1="2493.73" y1="2480.27" x2="2518.45" y2="2365.66" xlink:href="#linear-gradient-17"/><linearGradient id="linear-gradient-25" x1="91.59" y1="3060.48" x2="176.78" y2="3060.48" xlink:href="#linear-gradient-22"/><linearGradient id="linear-gradient-26" x1="2561.45" y1="1982.01" x2="2396.43" y2="2299.35" xlink:href="#linear-gradient-3"/><linearGradient id="linear-gradient-27" x1="2112.52" y1="2253.93" x2="2586.72" y2="1737.02" xlink:href="#linear-gradient-4"/><linearGradient id="linear-gradient-28" x1="2457.14" y1="1750.91" x2="2567.26" y2="1317.15" xlink:href="#linear-gradient-4"/><linearGradient id="linear-gradient-29" x1="-276.05" y1="3187.59" x2="-134.04" y2="3187.59" gradientTransform="translate(1290.1)" xlink:href="#linear-gradient-4"/><linearGradient id="linear-gradient-30" x1="79.47" y1="3020.06" x2="-437.17" y2="3425.72" gradientTransform="translate(1290.1)" xlink:href="#linear-gradient"/><linearGradient id="linear-gradient-31" x1="-236.55" y1="3025.92" x2="-263.68" y2="3262.65" gradientTransform="translate(1290.1)" xlink:href="#linear-gradient-3"/><linearGradient id="linear-gradient-32" x1="171.24" y1="3136.77" x2="-345.39" y2="3542.43" gradientTransform="translate(1290.1)" xlink:href="#linear-gradient"/><linearGradient id="linear-gradient-33" x1="-59.8" y1="3191.2" x2="144.62" y2="3191.2" gradientTransform="translate(1290.1)" xlink:href="#linear-gradient-4"/><linearGradient id="linear-gradient-34" x1="89.28" y1="2996.76" x2="62.16" y2="3233.51" gradientTransform="translate(993.21 65.77) rotate(-3.61)" xlink:href="#linear-gradient-3"/><linearGradient id="linear-gradient-35" x1="1285.52" y1="2160.96" x2="832.58" y2="3594.5" xlink:href="#linear-gradient-4"/><linearGradient id="linear-gradient-36" x1="866.33" y1="2272.57" x2="1380.99" y2="1641.04" gradientTransform="matrix(1, 0, 0, 1, 0, 0)" xlink:href="#linear-gradient-22"/><linearGradient id="linear-gradient-37" x1="1105.13" y1="1578.34" x2="1293.91" y2="1465.97" xlink:href="#linear-gradient-3"/><linearGradient id="linear-gradient-38" x1="1311.07" y1="1502.6" x2="1200.89" y2="1340.7" xlink:href="#linear-gradient-3"/><linearGradient id="linear-gradient-39" x1="1106.89" y1="1220.53" x2="1262.66" y2="1402.97" xlink:href="#linear-gradient-4"/><linearGradient id="linear-gradient-40" x1="1257.61" y1="1538.98" x2="1147.48" y2="1377.16" xlink:href="#linear-gradient-3"/><linearGradient id="linear-gradient-41" x1="1118.32" y1="1997.46" x2="1356.55" y2="1671.59" gradientTransform="matrix(1, 0, 0, 1, 0, 0)" xlink:href="#linear-gradient-22"/><linearGradient id="linear-gradient-42" x1="1744.05" y1="1615.97" x2="1347.74" y2="1813.12" xlink:href="#linear-gradient-3"/><linearGradient id="linear-gradient-43" x1="1738.25" y1="1566.53" x2="1602.69" y2="1708.11" xlink:href="#linear-gradient-3"/><linearGradient id="linear-gradient-44" x1="1745.94" y1="1613.64" x2="1349.62" y2="1810.78" xlink:href="#linear-gradient-3"/><linearGradient id="linear-gradient-45" x1="1911.55" y1="1948.14" x2="761.41" y2="1740.16" xlink:href="#linear-gradient-3"/><linearGradient id="linear-gradient-46" x1="1348.03" y1="1443.72" x2="845.07" y2="2214.63" xlink:href="#linear-gradient-17"/><linearGradient id="linear-gradient-47" x1="1341.05" y1="1439.17" x2="838.09" y2="2210.08" xlink:href="#linear-gradient-17"/></defs><g class="cls-1"><g id="Illustration"><path class="cls-2" d="M582.94,536.27c-2.6-11,12.94-18.38,22.45-10.67,96.6,78.33,328.7,312.9,270.85,722.83-72.57,514.32,51.5,702,205.94,816.46,0,0-212.09-53.83-345.54-244.26C409,1353.08,629.06,732.63,582.94,536.27Z" transform="translate(-451.95 -476.76)"/><path class="cls-3" d="M656.45,696.91c12.08,57.26,22.85,114.69,31.18,172.38q13,86.46,19.86,173.42c4.29,58,7.32,116,7.5,174,.47,58-1.94,116-4.6,174.22-2.28,58.19-5,116.8-.7,175.82s16.59,118.32,41.19,174c6.15,13.88,12.62,27.72,20,41.09,7.07,13.5,14.82,26.72,22.85,39.83a627.85,627.85,0,0,0,54.8,75.37c40.82,47.87,90,90.33,144.28,126.27,5.71,3.78,13.89,2.86,18.27-2.07s3.34-11.74-2.1-15.57l0,0c-12.9-9.06-25.67-18.24-37.92-27.88-6.22-4.74-12.18-9.7-18.24-14.56-5.85-5.06-11.92-9.93-17.58-15.13a625.18,625.18,0,0,1-63.72-65.49c-38.93-46-70.1-97.32-93.71-150.5a508.68,508.68,0,0,1-27.31-82,559.43,559.43,0,0,1-13.18-84.94c-4.65-57.29-2.55-115.31-.75-173.51s3-116.72,1.42-175.19q-1-43.83-3.85-87.62c-.84-14.59-2-29.17-3.16-43.75q-2-21.85-4.25-43.67-9.4-87.27-25-173.84c-10.76-57.64-23.28-115-38.34-171.86a3.53,3.53,0,0,0-4.18-2.27A3.06,3.06,0,0,0,656.45,696.91Z" transform="translate(-451.95 -476.76)"/><path class="cls-4" d="M833.17,1767.33a24.32,24.32,0,0,1-39.8-6.77C754.06,1673.76,665.09,1418.31,812,1124,936.1,875.49,979.76,728.94,995,661c3.22-14.36,22.9-16.26,28.84-2.8C1089.33,806.77,1262.36,1312,833.17,1767.33Z" transform="translate(-451.95 -476.76)"/><path class="cls-3" d="M811.66,1758.17a7,7,0,0,1-1.3.11,6.75,6.75,0,0,1-6.64-6.85c.07-4.22,8.28-426.1,165.19-779.44a6.74,6.74,0,1,1,12.33,5.47c-155.77,350.77-164,770-164,774.18A6.73,6.73,0,0,1,811.66,1758.17Z" transform="translate(-451.95 -476.76)"/><path class="cls-5" d="M2512.36,1115.66c-37.56-66-66.46-154.71-7.43-221.12,106.63-119.95,319.87-146.61,373.19,40,22.05,77.19,6.48,137.19-19.37,181-23.94,40.58,5.57,91.73,52.69,91.73h339.87v453.47c0,40.94-46,64.38-79.65,41-228-158.25-346.88,28.41-347.13,112.41-.29,93.3,40.26,313.22,186.87,306.55,67-3,122.87-25.57,163.78-49.14,33.88-19.52,76.13,4.25,76.13,43.35V2537.6H2899.58c-41.76,0-66.66,46.12-43.95,81.16,26.1,40.26,47.95,98.63,49.14,181.71,3,211.46-319.87,173.26-399.84,106.62-57.12-47.6-59.47-200.23-15-294.62,16.43-34.87-10.59-74.87-49.15-74.87H2098.42V2075.09c0-33.72-36.62-54.45-65.61-37.23-58.92,35-149.93,78.92-240.94,82.87-153.27,6.67-173.26-166.6-179.93-299.88-5.88-117.72,218.54-308.27,395.69-192.1,29,19,88.61,46.89,88.61,12.18V1207.26h363.31C2506.6,1207.26,2535.64,1156.55,2512.36,1115.66Z" transform="translate(-451.95 -476.76)"/><path class="cls-6" d="M2700.72,2966.49a443.16,443.16,0,0,1-55.38-3.57c-61-7.69-116.47-27.1-144.73-50.65-61.64-51.37-60.75-209.36-16.78-302.67,6.61-14,5.53-29.73-2.95-43.1a47.31,47.31,0,0,0-40.1-22.15H2098.42a6.75,6.75,0,0,1-6.74-6.75V2075.09a36.61,36.61,0,0,0-55.42-31.43c-60.63,36-152.2,79.81-244.09,83.81-70.66,3.14-121.67-31.1-151.45-101.58-25.26-59.78-32.13-137-35.51-204.71-3.22-64.33,56.5-146.56,142-195.54,90.92-52.07,187.18-53,264.13-2.53,26.72,17.53,62.82,32.51,74.55,26.19,1-.53,3.61-2,3.61-8.37V1207.26a6.74,6.74,0,0,1,6.74-6.74h363.32a53.57,53.57,0,0,0,46.8-26.86,54.25,54.25,0,0,0,.15-54.66c-53.66-94.26-55.95-173.43-6.61-228.94,65.18-73.32,168.75-111.29,251.81-92.36,65.07,14.84,112.27,62.77,132.9,135,19.45,68.09,12.71,130.76-20,186.29a54.19,54.19,0,0,0,46.89,81.56H3251.3a6.75,6.75,0,0,1,6.75,6.74v453.47a56,56,0,0,1-30.46,50.41,57.67,57.67,0,0,1-59.77-3.83c-113.14-78.53-192.17-66.19-238.55-42-66.66,34.75-97.88,109.4-98,148.91-.22,72.21,23,202.19,87.79,264.31,26.22,25.13,57.1,37,92,35.48,55.44-2.51,109.52-18.74,160.72-48.24a57.33,57.33,0,0,1,57.88-.1,56.32,56.32,0,0,1,28.36,49.29V2537.6a6.75,6.75,0,0,1-6.75,6.75H2899.58a45.71,45.71,0,0,0-38.29,70.75c32.28,49.79,49.18,112.12,50.23,185.27.93,65.28-28.84,114.22-86.08,141.54C2791.46,2958.12,2748.37,2966.49,2700.72,2966.49Zm-595.55-435.63h335.61a60.72,60.72,0,0,1,51.49,28.42,58,58,0,0,1,3.76,56.07c-45.31,96.15-38.52,243.45,13.21,286.57,53,44.18,213.16,74.21,310.39,27.82,52.89-25.24,79.27-68.7,78.4-129.18-1-70.57-17.18-130.5-48.05-178.13a59.19,59.19,0,0,1,49.6-91.57h345V2114.94a43,43,0,0,0-21.62-37.61,44,44,0,0,0-44.4.1c-53.09,30.59-109.22,47.42-166.84,50-38.62,1.78-73-11.44-102-39.22-67.87-65.06-92.17-199.55-91.95-274.08.13-44.07,32.88-123.1,105.26-160.83,49.67-25.9,133.8-39.48,252.47,42.89a43.65,43.65,0,0,0,45.83,3,42.71,42.71,0,0,0,23.22-38.46V1214H2911.44a67.67,67.67,0,0,1-58.5-101.9c30.8-52.21,37.09-111.34,18.7-175.72-24.63-86.2-80.45-115.84-122.94-125.53C2670.2,792.93,2572,829.2,2510,899c-31.48,35.41-55.6,101.16,8.25,213.31h0a67.61,67.61,0,0,1-.21,68.11,66.91,66.91,0,0,1-58.46,33.56H2103v426.93c0,12-5.81,17.6-10.69,20.23-25.75,13.91-85.81-25.1-88.35-26.77-72.55-47.59-163.69-46.51-250,3-80,45.83-138.16,124.58-135.24,183.16,3.33,66.5,10,142.29,34.47,200.14,27.74,65.65,73,96.18,138.44,93.34,89.1-3.87,178.49-46.68,237.79-81.93a50.1,50.1,0,0,1,75.8,43Z" transform="translate(-451.95 -476.76)"/><path class="cls-7" d="M802.16,2052.55c-40,26.84-92.75,52.93-152.23,58.88-131.7,13.17-184.38-131.7-191-256.82S564.32,1611,663.1,1624.13c46.53,6.2,97.43,35.78,138.27,65.33,33,23.88,79,.4,79-40.32V1199.75h454.64c37.89,0,63-39.12,47.17-73.55-35.67-77.53-75.74-195.34-19.86-246.19,86.85-79,321.44-79,361,39.51,22.13,66.37-7.93,146.22-38.66,203.64-18.54,34.62,6.47,76.41,45.74,76.41h388v416.18c0,44.4-50.21,72-86.42,46.3-167.85-119.13-351.16,6.53-368,146.47-19.76,164.62,85.6,302.91,197.55,289.74,56.85-6.69,122.18-38.84,172.73-68.88,37.12-22.06,84.09,4.43,84.09,47.62v459.69H1671.49c-51.14,0-85.34-53.34-63.18-99.43,26.42-54.92,134.68-122.34,128.17-174.37-13.17-105.36-247.76-131.43-374.12-111.81-96.44,15-48.5,165.83,6.32,286.73,21,46.34-12.46,98.88-63.33,98.88H880.41V2093.48C880.41,2053.25,835.58,2030.14,802.16,2052.55Z" transform="translate(-451.95 -476.76)"/><path class="cls-6" d="M2118.42,2543.43H1671.49a76.39,76.39,0,0,1-65-36,75.33,75.33,0,0,1-4.23-73.13c11.35-23.6,37-49.2,61.7-74,34.06-34.06,69.28-69.28,65.86-96.65-2.54-20.27-14.4-38.53-35.27-54.26-47.54-35.86-189.06-73.78-331.13-51.73-19.19,3-32.43,11.66-40.46,26.52-22,40.69-4.06,127.4,51.87,250.76a76.51,76.51,0,0,1-69.46,108.41H880.41a6.74,6.74,0,0,1-6.74-6.74V2093.48a42.15,42.15,0,0,0-22.57-37.77,43.34,43.34,0,0,0-45.18,2.44c-51.65,34.67-103.91,54.85-155.32,60-42.48,4.25-79.62-7-110.48-33.5-23.87-20.49-80.22-83.88-87.89-229.68-3.53-67,27-138.89,79.66-187.5,40.69-37.55,88.85-55.77,132.1-50,40.15,5.35,87.7,27.74,141.34,66.55a43,43,0,0,0,68.34-34.86V1199.75a6.74,6.74,0,0,1,6.74-6.74h454.64a45.1,45.1,0,0,0,41-64c-40-87-75.7-201.72-18.26-254,55-50.09,169.15-70.8,259.77-47.13,58.11,15.17,97.93,47,112.11,89.49,23.06,69.21-8.54,151.84-39.12,209a45.12,45.12,0,0,0,39.8,66.48h388a6.75,6.75,0,0,1,6.75,6.75v416.18a62.81,62.81,0,0,1-34.24,55.93c-20.66,10.67-44.15,9.12-62.83-4.14C1957,1617.06,1877,1607.33,1803,1640.15c-71.81,31.82-123.71,98.22-132.23,169.17-10.78,89.79,16.85,180,72.09,235.34,35,35.08,76.87,51.75,118,46.91,57.36-6.75,124.14-40.7,170.06-68a62.3,62.3,0,0,1,94.29,53.42v459.69A6.75,6.75,0,0,1,2118.42,2543.43Zm-669.59-405c88.42,0,195.13,16,253.83,60.28,23.88,18,37.51,39.33,40.51,63.35,4.25,33.92-33.34,71.51-69.7,107.87-24,23.95-48.72,48.73-59.08,70.26a61.93,61.93,0,0,0,3.49,60.11,63,63,0,0,0,53.61,29.66h440.19V2077a48.8,48.8,0,0,0-73.91-41.82c-47,28-115.66,62.75-175.38,69.78-45.23,5.33-91.13-12.71-129.1-50.78-58.1-58.23-87.2-152.67-75.94-246.47,9.07-75.57,64.08-146.18,140.15-179.89,78.59-34.81,163.26-24.61,238.41,28.73,14.49,10.28,32.75,11.46,48.83,3.15a49.38,49.38,0,0,0,26.94-44V1206.31H1730.39A58.62,58.62,0,0,1,1678.7,1120c29.33-54.79,59.77-133.68,38.22-198.33-12.69-38.07-49.17-66.73-102.73-80.71-86.66-22.62-195.28-3.27-247.29,44.06-23.23,21.13-51.33,80.2,21.45,238.38a58.59,58.59,0,0,1-53.3,83.11H887.15v442.65a56.52,56.52,0,0,1-89.73,45.78c-51.07-37-97.83-59.12-135.21-64.11-39.27-5.24-83.45,11.74-121.17,46.56-49.8,46-78.67,113.74-75.35,176.88,5.14,97.55,36.25,179.84,83.22,220.15,27.94,24,61.71,34.2,100.35,30.32,49.18-4.91,99.36-24.35,149.15-57.77h0a57.36,57.36,0,0,1,59-3.13,55.41,55.41,0,0,1,29.7,49.66V2530h418.2a63,63,0,0,0,57.18-89.36c-58.56-129.17-75.87-217.57-51.45-262.74,10-18.57,26.94-29.81,50.25-33.43C1385.71,2140.63,1416,2138.42,1448.83,2138.42Z" transform="translate(-451.95 -476.76)"/><g class="cls-8"><path class="cls-4" d="M2579.25,915.5a8.43,8.43,0,0,1-9.61-5.88c-2.72-9.12-5.07-18.49-7-27.86a8.43,8.43,0,0,1,6.54-10l.16,0a8.43,8.43,0,0,1,9.8,6.58c1.84,8.9,4.08,17.8,6.66,26.46a8.43,8.43,0,0,1-5.68,10.48A6.34,6.34,0,0,1,2579.25,915.5Zm-12.95-72.24c-.33.06-.66.1-1,.13a8.44,8.44,0,0,1-9-7.84c-.64-9.54-.87-19.2-.7-28.71a8.42,8.42,0,1,1,16.84.3c-.16,9,.07,18.22.68,27.28A8.42,8.42,0,0,1,2566.3,843.26Zm3.27-73.29a8.45,8.45,0,0,1-9.87-9.61c1.5-9.42,3.42-18.89,5.72-28.15a8.42,8.42,0,1,1,16.35,4.06c-2.18,8.79-4,17.79-5.43,26.73A8.42,8.42,0,0,1,2569.57,770Zm19.59-70.74a8.43,8.43,0,0,1-9.36-11.43c3.57-8.85,7.56-17.66,11.87-26.17a8.42,8.42,0,1,1,15,7.61c-4.09,8.08-7.88,16.44-11.27,24.86A8.4,8.4,0,0,1,2589.16,699.23ZM2624,634.64a8.42,8.42,0,0,1-8.47-13.08c5.43-7.83,11.26-15.53,17.35-22.88a8.43,8.43,0,1,1,13,10.74c-5.79,7-11.34,14.31-16.5,21.74A8.38,8.38,0,0,1,2624,634.64Zm48.28-55.27a8.42,8.42,0,0,1-7.24-14.49c7-6.44,14.43-12.66,22-18.47a8.42,8.42,0,0,1,10.28,13.35c-7.19,5.53-14.21,11.43-20.9,17.55A8.38,8.38,0,0,1,2672.31,579.37Zm299.75-76.44a8.42,8.42,0,0,1-3.56-.11c-8.78-2.16-17.79-4-26.75-5.38a8.43,8.43,0,1,1,2.61-16.65c9.44,1.48,18.92,3.39,28.18,5.67a8.43,8.43,0,0,1-.48,16.47ZM2731.6,536.21a8.43,8.43,0,0,1-5.71-15.61c8.29-4.71,16.89-9.12,25.55-13.1a8.42,8.42,0,1,1,7,15.3c-8.23,3.79-16.39,8-24.26,12.45A8.64,8.64,0,0,1,2731.6,536.21Zm167.68-42.7a8.47,8.47,0,0,1-1.68.14c-9.06-.14-18.24.1-27.29.73a8.43,8.43,0,0,1-1.17-16.81c9.53-.66,19.19-.92,28.72-.77a8.43,8.43,0,0,1,1.42,16.71Zm-100.23,13.86a8.42,8.42,0,0,1-4-16.35c9.12-2.73,18.49-5.11,27.83-7.06l.18,0a8.43,8.43,0,0,1,3.27,16.53c-8.88,1.85-17.78,4.11-26.45,6.71A7,7,0,0,1,2799.05,507.37Z" transform="translate(-451.95 -476.76)"/><path class="cls-4" d="M3028,522.22a8.26,8.26,0,0,1-5-.6c-4-1.78-8-3.51-12.08-5.14a8.42,8.42,0,1,1,6.28-15.63c4.27,1.71,8.54,3.53,12.71,5.41a8.42,8.42,0,0,1-1.92,16Z" transform="translate(-451.95 -476.76)"/></g><g class="cls-8"><path class="cls-4" d="M3202.45,710.71a8.43,8.43,0,0,1-9.47-5.45c-1.46-4.09-3-8.21-4.68-12.26a8.43,8.43,0,0,1,15.62-6.33c1.72,4.26,3.38,8.61,4.92,12.92a8.42,8.42,0,0,1-5.09,10.77A9,9,0,0,1,3202.45,710.71Z" transform="translate(-451.95 -476.76)"/><path class="cls-4" d="M2954.24,1144q-5.72,1.07-11.51,2a8.43,8.43,0,0,1-2.54-16.66c8.92-1.36,17.76-3.08,26.37-5.13a8.42,8.42,0,0,1,3.91,16.39C2965.14,1141.78,2959.68,1142.94,2954.24,1144Zm-55.83,5.63a9.49,9.49,0,0,1-1.43.14c-9.4.15-18.91-.11-28.26-.75a8.42,8.42,0,1,1,1.15-16.8c8.89.6,17.92.84,26.85.7a8.43,8.43,0,0,1,1.69,16.71Zm114.37-22.32a8.42,8.42,0,0,1-4.6-16.13c8.3-3.23,16.57-6.85,24.59-10.78a8.42,8.42,0,0,1,7.41,15.13c-8.44,4.14-17.15,8-25.89,11.35A7.78,7.78,0,0,1,3012.78,1127.27Zm-186.28,15.48a8.58,8.58,0,0,1-3.27,0c-9.19-1.92-18.42-4.26-27.41-7a8.42,8.42,0,1,1,4.83-16.14c8.54,2.55,17.29,4.77,26,6.6a8.43,8.43,0,0,1-.17,16.53Zm250.23-48.93a8.42,8.42,0,0,1-6.25-15.27c7.37-5,14.64-10.32,21.6-15.92a8.43,8.43,0,0,1,10.56,13.14c-7.33,5.89-15,11.52-22.75,16.76A8.33,8.33,0,0,1,3076.73,1093.82Zm55.08-46.67a8.43,8.43,0,0,1-7.68-14.07c6.13-6.48,12.06-13.3,17.63-20.26a8.42,8.42,0,0,1,13.16,10.52c-5.86,7.32-12.1,14.5-18.55,21.32A8.44,8.44,0,0,1,3131.81,1047.15Zm43.58-57.57a8.43,8.43,0,0,1-8.78-12.6c4.58-7.67,8.89-15.61,12.8-23.62a8.42,8.42,0,0,1,15.13,7.4c-4.11,8.42-8.64,16.79-13.46,24.85A8.43,8.43,0,0,1,3175.39,989.58Zm30-65.71a8.27,8.27,0,0,1-4.17-.28,8.41,8.41,0,0,1-5.37-10.63c2.79-8.48,5.24-17.17,7.3-25.84a8.42,8.42,0,0,1,16.39,3.89c-2.16,9.13-4.75,18.29-7.69,27.21A8.39,8.39,0,0,1,3205.38,923.87Zm14.84-70.71a8.41,8.41,0,0,1-9.94-9.08c.85-8.86,1.33-17.88,1.43-26.8a8.43,8.43,0,1,1,16.85.19c-.1,9.39-.61,18.88-1.51,28.21A8.41,8.41,0,0,1,3220.22,853.16ZM3219.16,781l-.51.08a8.41,8.41,0,0,1-9.4-7.32c-.81-6.51-1.83-13.08-3-19.53-.43-2.33-.9-4.65-1.38-7a8.42,8.42,0,0,1,16.49-3.46q.76,3.65,1.45,7.33c1.27,6.77,2.34,13.69,3.2,20.54A8.43,8.43,0,0,1,3219.16,781Z" transform="translate(-451.95 -476.76)"/><path class="cls-4" d="M2757.67,1120.15a8.39,8.39,0,0,1-5-.61c-4.15-1.9-8.34-3.91-12.45-6a8.42,8.42,0,1,1,7.61-15c3.91,2,7.89,3.89,11.82,5.69a8.42,8.42,0,0,1-1.95,15.94Z" transform="translate(-451.95 -476.76)"/></g><path class="cls-4" d="M2750.89,1022a3.92,3.92,0,0,0,4.55.38l41.17-24.52a208.79,208.79,0,0,0,64.43,20.57l19.35,43.81a3.93,3.93,0,0,0,3.93,2.33l57.28-4.81a4,4,0,0,0,3.49-3l11.76-46.42a208.65,208.65,0,0,0,60.09-31l44.68,17.31a3.93,3.93,0,0,0,4.43-1.13l37.1-43.91a3.92,3.92,0,0,0,.38-4.55L3079,905.88a208.66,208.66,0,0,0,20.58-64.42l43.81-19.35a4,4,0,0,0,2.33-3.93l-4.82-57.28a3.92,3.92,0,0,0-3-3.49l-46.42-11.76a208.9,208.9,0,0,0-31.05-60.09l17.31-44.69a3.93,3.93,0,0,0-1.14-4.42l-43.9-37.1a3.94,3.94,0,0,0-4.56-.38L2987,623.5a208.48,208.48,0,0,0-64.42-20.58l-19.35-43.81a3.94,3.94,0,0,0-3.94-2.33L2842,561.59a3.93,3.93,0,0,0-3.48,3L2826.78,611a209,209,0,0,0-60.08,31L2722,624.71a4,4,0,0,0-4.43,1.13l-37.09,43.91a3.93,3.93,0,0,0-.38,4.56l24.52,41.17a208.73,208.73,0,0,0-20.57,64.42l-43.81,19.35a3.92,3.92,0,0,0-2.33,3.94l4.81,57.27a3.93,3.93,0,0,0,3,3.49l46.42,11.76a208.65,208.65,0,0,0,31,60.09l-17.31,44.69a3.94,3.94,0,0,0,1.13,4.43Z" transform="translate(-451.95 -476.76)"/><path class="cls-2" d="M2902.4,867.49a57.84,57.84,0,1,1,8.2-2.17A59.43,59.43,0,0,1,2902.4,867.49Zm-18.63-100.38a45.19,45.19,0,0,0-6.36,1.68,44.15,44.15,0,1,0,6.36-1.68Z" transform="translate(-451.95 -476.76)"/><path class="cls-2" d="M2918.9,949.3q-7.14,1.34-14.47,2h0c-1.54.13-3.08.23-4.62.31a143.77,143.77,0,0,1-22.74-.63l-.31,0-.87-.11-1.7-.2a3.38,3.38,0,0,1-2.88-2.72,3.13,3.13,0,0,1,0-1.06,3.38,3.38,0,0,1,3.77-2.91,135.46,135.46,0,0,0,137.35-71.5,134.48,134.48,0,0,0,15-74.06,136.66,136.66,0,0,0-1.86-13.8,135.36,135.36,0,0,0-144.33-109.72c-74.39,6.26-129.77,71.84-123.52,146.19a135.58,135.58,0,0,0,24.94,67.64,3.37,3.37,0,0,1-5.48,3.94,142,142,0,0,1-26.17-71c-6.57-78.07,51.63-146.91,129.66-153.48a142.12,142.12,0,0,1,151.52,115.18,144.62,144.62,0,0,1,2,14.49A142.09,142.09,0,0,1,2918.9,949.3Z" transform="translate(-451.95 -476.76)"/><g class="cls-8"><path class="cls-4" d="M2337.47,1186.55a5.2,5.2,0,0,1-5.6-2.75c-2-3.94-3.91-8-5.67-12a5.2,5.2,0,0,1,9.54-4.15c1.68,3.86,3.5,7.73,5.41,11.48a5.19,5.19,0,0,1-3.68,7.47Z" transform="translate(-451.95 -476.76)"/><path class="cls-4" d="M2322.68,1149.36a5.2,5.2,0,0,1-5.94-3.64,227.35,227.35,0,0,1-5.35-22.26c-.29-1.57-.57-3.16-.83-4.75a5.38,5.38,0,0,1,4.28-6,5.21,5.21,0,0,1,6,4.28c.25,1.52.51,3,.79,4.54a214.75,214.75,0,0,0,5.1,21.22,5.22,5.22,0,0,1-3.52,6.47Zm-8.8-53.3-.75.09a5.22,5.22,0,0,1-5.42-5,228.34,228.34,0,0,1,.54-27.69,5.2,5.2,0,1,1,10.37.85,215.37,215.37,0,0,0-.51,26.41A5.21,5.21,0,0,1,2313.88,1096.06Zm4.38-53.85a5.29,5.29,0,0,1-2,0,5.21,5.21,0,0,1-4-6.16,225.21,225.21,0,0,1,7.34-26.72,5.2,5.2,0,1,1,9.84,3.37,214.34,214.34,0,0,0-7,25.48A5.19,5.19,0,0,1,2318.26,1042.21Zm17.49-51.12a5.2,5.2,0,0,1-5.63-7.39,223,223,0,0,1,13.65-24.11,5.2,5.2,0,1,1,8.72,5.67,215.52,215.52,0,0,0-13,23A5.17,5.17,0,0,1,2335.75,991.09Zm29.45-45.3a5.2,5.2,0,0,1-4.94-8.46,224.59,224.59,0,0,1,19.08-20.06,5.2,5.2,0,0,1,7.09,7.61A216.77,216.77,0,0,0,2368.22,944,5.12,5.12,0,0,1,2365.2,945.79ZM2404.74,909a5.2,5.2,0,0,1-4-9.33,223.52,223.52,0,0,1,23.39-14.8,5.2,5.2,0,1,1,5,9.12,215.76,215.76,0,0,0-22.3,14.11A5.16,5.16,0,0,1,2404.74,909Zm47.32-26a5.21,5.21,0,0,1-2.87-10,228,228,0,0,1,26.32-8.61,5.21,5.21,0,0,1,2.63,10.08,212.89,212.89,0,0,0-25.11,8.21A5.9,5.9,0,0,1,2452.06,883Zm79.28-15.5a4.53,4.53,0,0,1-.91.09,216,216,0,0,0-22.93,1.44c-1.16.13-2.29.27-3.42.43a5.21,5.21,0,0,1-5.85-4.47,5.15,5.15,0,0,1,4.47-5.85c1.2-.16,2.41-.31,3.62-.45a227.91,227.91,0,0,1,24-1.5,5.2,5.2,0,0,1,1,10.31Z" transform="translate(-451.95 -476.76)"/></g><g class="cls-8"><path class="cls-4" d="M2576.56,1302.27a5.21,5.21,0,0,1-2-10.22,216.35,216.35,0,0,0,25.12-6.63,5.2,5.2,0,0,1,3.26,9.88,226.12,226.12,0,0,1-26.33,7Zm-26.37,3.65a5,5,0,0,1-.56.08,227.15,227.15,0,0,1-27.24.48,5.2,5.2,0,0,1,.44-10.4,216.72,216.72,0,0,0,26-.46,5.2,5.2,0,0,1,1.37,10.3ZM2627,1285.6a5.2,5.2,0,0,1-3.18-9.81,216.75,216.75,0,0,0,22.78-12.52,5.2,5.2,0,1,1,5.55,8.8,224.56,224.56,0,0,1-23.87,13.12A5.6,5.6,0,0,1,2627,1285.6Zm-129.92,18a5.23,5.23,0,0,1-1.81,0,223.71,223.71,0,0,1-26.57-6.11,5.2,5.2,0,0,1,3-10,213.1,213.1,0,0,0,25.33,5.82,5.2,5.2,0,0,1,.1,10.25Zm174.84-46.4a5.21,5.21,0,0,1-4.25-9.15,213.49,213.49,0,0,0,19.09-17.62,5.21,5.21,0,0,1,7.51,7.21,227,227,0,0,1-20,18.47A5.25,5.25,0,0,1,2671.92,1257.24Zm36.8-38.32a5.2,5.2,0,0,1-5.12-8.24,218.46,218.46,0,0,0,14.34-21.68,5.2,5.2,0,0,1,9,5.2,227.85,227.85,0,0,1-15,22.73A5.19,5.19,0,0,1,2708.72,1218.92Zm26.56-46a5.14,5.14,0,0,1-3-.33,5.2,5.2,0,0,1-2.75-6.83,214.65,214.65,0,0,0,8.71-24.48,5.2,5.2,0,1,1,10,2.88,225.54,225.54,0,0,1-9.14,25.69A5.2,5.2,0,0,1,2735.28,1172.89Z" transform="translate(-451.95 -476.76)"/><path class="cls-4" d="M2445.88,1288.5a5.14,5.14,0,0,1-3-.34c-4.08-1.78-8.13-3.68-12-5.66a5.21,5.21,0,1,1,4.71-9.29c3.72,1.89,7.59,3.71,11.48,5.4a5.2,5.2,0,0,1-1.12,9.89Z" transform="translate(-451.95 -476.76)"/></g><path class="cls-4" d="M2437.78,1221.63a2.64,2.64,0,0,0,3,.26l27.55-16.41a139.8,139.8,0,0,0,43.11,13.77l12.94,29.31a2.64,2.64,0,0,0,2.63,1.56l38.33-3.22a2.66,2.66,0,0,0,2.34-2l7.87-31.06a139.38,139.38,0,0,0,40.2-20.78l29.91,11.58a2.62,2.62,0,0,0,3-.76l24.82-29.38a2.62,2.62,0,0,0,.26-3l-16.41-27.55a140,140,0,0,0,13.77-43.11l29.31-13a2.63,2.63,0,0,0,1.56-2.63l-3.22-38.33a2.66,2.66,0,0,0-2-2.34l-31.06-7.87a139.5,139.5,0,0,0-20.78-40.2l11.58-29.91a2.64,2.64,0,0,0-.75-3l-29.39-24.82a2.62,2.62,0,0,0-3-.26L2595.79,955a139.36,139.36,0,0,0-43.11-13.77l-12.95-29.32a2.64,2.64,0,0,0-2.63-1.56l-38.33,3.22a2.63,2.63,0,0,0-2.33,2l-7.88,31.06a139.88,139.88,0,0,0-40.2,20.78l-29.91-11.58a2.63,2.63,0,0,0-3,.76l-24.82,29.38a2.62,2.62,0,0,0-.25,3.05l16.41,27.54a139.41,139.41,0,0,0-13.77,43.12l-29.32,12.94a2.64,2.64,0,0,0-1.56,2.63l3.22,38.33a2.66,2.66,0,0,0,2,2.34l31.07,7.87a139.73,139.73,0,0,0,20.77,40.2l-11.58,29.91a2.62,2.62,0,0,0,.76,3Z" transform="translate(-451.95 -476.76)"/><path class="cls-2" d="M2539.23,1118.93a39.49,39.49,0,1,1,5.64-1.49A40.07,40.07,0,0,1,2539.23,1118.93Zm-12.45-67.17a27.67,27.67,0,0,0-4.11,1.08,29,29,0,0,0,18.82,54.76h0a29,29,0,0,0-14.71-55.84Z" transform="translate(-451.95 -476.76)"/><path class="cls-2" d="M2550.64,1175.89c-3.23.6-6.53,1-9.87,1.33a98.7,98.7,0,0,1-20-.34l-.89-.11a5.2,5.2,0,1,1,1.33-10.32,88.07,88.07,0,0,0,18.65.4h0l1-.09a86.83,86.83,0,0,0,40.43-14.39A88,88,0,0,0,2599,1136.7l.13-.15.39-.45a87.08,87.08,0,0,0,20.38-63.89q-.39-4.51-1.21-8.93a87.61,87.61,0,1,0-157.26,67.4,5.1,5.1,0,0,1,.89,2.08,5.2,5.2,0,0,1-9.33,4,98,98,0,1,1,175.93-75.41c.61,3.28,1.06,6.62,1.35,10A98.16,98.16,0,0,1,2550.64,1175.89Z" transform="translate(-451.95 -476.76)"/><path class="cls-9" d="M1688.18,1871.75s-15.67-41.23-34-37.45-38.31,17.83-38.31,17.83l-29.39,39.75s82.51,32.5,111.52,13.87c0,0,84.28,14.56,190.7-2.9-15.41-32.52-24.59-65.09-30-90.36C1804.86,1843,1746.8,1865.79,1688.18,1871.75Z" transform="translate(-451.95 -476.76)"/><path class="cls-10" d="M2134.59,1572.68s-120.66,152-275.83,239.81c5.39,25.27,14.57,57.84,30,90.36,80.49-13.21,173.65-44.73,252.63-114.77Z" transform="translate(-451.95 -476.76)"/><path class="cls-11" d="M2285.06,2246.26c-23.59-112.08-47.19-177-126.2-389.42-24.86-66.85-47.44-134.5-36.53-205l12.26-79.17s153.54-52,323.75-2.18c0,0,232.21,100.87,74.48,599.08C2461.73,2249.11,2378.53,2271.78,2285.06,2246.26Z" transform="translate(-451.95 -476.76)"/><path class="cls-12" d="M2160.72,1471.64l39.82,95.65a19.05,19.05,0,0,0,14.4,11.46c22.95,3.93,78.47,10.08,114.94-13.89a9.26,9.26,0,0,0,2.47-13l-73.55-105.61Z" transform="translate(-451.95 -476.76)"/><path class="cls-13" d="M2201.9,1325.3c-1.67,1.57-70.57,136.87-70.57,136.87l78.09,37.7,84.35-118.54S2229.89,1298.94,2201.9,1325.3Z" transform="translate(-451.95 -476.76)"/><path class="cls-14" d="M2258.29,1395.56l-38.95,64.92a12.44,12.44,0,0,1-2.14,2.66c-4.63,4.31-20.5,16.86-32.76-.22-10.45-14.57-20.26-27.81-30.77-33.27a12.44,12.44,0,0,0-16.8,5.53c-6.42,12.72-18.85,38.64-26.66,63.23a12.4,12.4,0,0,0,7.22,15.2c15.81,6.41,47.06,18,74.79,21.82a12.44,12.44,0,0,0,11.78-5c11.93-16.34,45.56-62,57-73.45,10.66-10.62,30.34-6.62,39.21-4.07a12.5,12.5,0,0,0,9.95-1.31c9-5.42,24.7-18.91,10.33-41.76a12.46,12.46,0,0,1,3.86-16.93c10-6.61,20.94-19,10.56-39.1-10.51-20.33-29.29-22.16-42.07-20.59a13,13,0,0,1-13.58-7.55,8.22,8.22,0,0,0-6.42-5.06,12.1,12.1,0,0,1-9.79-14.2c2.26-11.51.56-26.45-17.81-36.55-33.69-18.53-63.21,11.66-70.71,37.14s30.16,43.48,53.86,46.49c17.41,2.21,27,21.21,30.79,31.14A12.48,12.48,0,0,1,2258.29,1395.56Z" transform="translate(-451.95 -476.76)"/><path class="cls-15" d="M2244.63,1476.4s16.76-39.43,35.94-37.82,34.27,20.72,10.5,42.19C2261.51,1507.49,2244.63,1476.4,2244.63,1476.4Z" transform="translate(-451.95 -476.76)"/><path class="cls-16" d="M2270,3234.06c37.08,3.2,101.44,8.41,152.18,10.64,30.5,1.35,48.06-1.64,58.18-5.69,0,1.14,0,2.22-.1,3.22a10.49,10.49,0,0,1-10,9.91c-95.87,5.35-172.12,1.85-199.27.2a7.48,7.48,0,0,1-6.09-11.23A61.94,61.94,0,0,1,2270,3234.06Z" transform="translate(-451.95 -476.76)"/><path class="cls-17" d="M2422.13,3244.7c-50.74-2.23-115.1-7.44-152.18-10.64,36.46-44.73,152.18-74.88,152.18-74.88h32.69c22.48,32.4,25.73,63.25,25.49,79.83C2470.19,3243.06,2452.63,3246.05,2422.13,3244.7Z" transform="translate(-451.95 -476.76)"/><path class="cls-18" d="M2460.32,3105.82l-3.06,60.52a13.81,13.81,0,0,1-11.8,13,53.62,53.62,0,0,1-24.55-2,16.37,16.37,0,0,1-11-12.57l-10.57-58.92Z" transform="translate(-451.95 -476.76)"/><path class="cls-19" d="M2884.85,3244.25c16.09-2.24,23.36-10.6,26.41-19.53l.06.24c2.37,9.42-3.12,19.19-14.08,23.83-13.26,5.61-27.75,6.57-39,6.11-12.07-.5-23.15-5.5-29.24-13.49l-.09-.12C2841,3247.29,2858,3248,2884.85,3244.25Z" transform="translate(-451.95 -476.76)"/><path class="cls-20" d="M2809,3105.43H2836c41.06-.84,66.84,85.76,75.28,119.29-3.05,8.93-10.32,17.29-26.41,19.53-26.82,3.74-43.82,3-55.94-3-22.18-29.19-33.18-71.94-38.46-96.89C2784.43,3116,2809,3105.43,2809,3105.43Z" transform="translate(-451.95 -476.76)"/><path class="cls-21" d="M2832.52,3049.25l15,59.53a16.16,16.16,0,0,1-8.41,18.31c-8.37,4.3-20.16,8.81-31,7.51a13.54,13.54,0,0,1-11-9l-22-62.63Z" transform="translate(-451.95 -476.76)"/><path class="cls-22" d="M2850.37,3066.46c-18.62,16.52-79.19,18.7-79.19,18.7C2553,2561.49,2462,2417.34,2462,2417.34c31.51,197.65,6.79,705,6.79,705-36,15.88-82.42,0-82.42,0-2.92-323.59-48.48-671.29-107.24-893.77,147.47-3.32,227.61-35.47,253.22-55.72C2655.3,2371,2850.37,3066.46,2850.37,3066.46Z" transform="translate(-451.95 -476.76)"/><path class="cls-23" d="M2242,2374.9l27.14,168.77a55.6,55.6,0,0,0,61.72,46.22L2737,2540.35a40.1,40.1,0,0,0,35.33-38.93c.87-43.61-.84-121.22-19.14-191.93Z" transform="translate(-451.95 -476.76)"/><path class="cls-24" d="M2342.23,2578.67a1.16,1.16,0,0,1-1.15-1,1.17,1.17,0,0,1,1-1.3l9.19-1.12a1.13,1.13,0,0,1,1.29,1,1.15,1.15,0,0,1-1,1.29l-9.2,1.12Zm-21.48-.53a1.07,1.07,0,0,1-.25,0,53.91,53.91,0,0,1-9-2.89,1.16,1.16,0,1,1,.9-2.14,51.41,51.41,0,0,0,8.61,2.77,1.16,1.16,0,0,1-.26,2.29Zm52.13-3.21a1.16,1.16,0,0,1-1.15-1,1.17,1.17,0,0,1,1-1.3l9.2-1.11a1.15,1.15,0,0,1,.28,2.29l-9.2,1.12Zm30.65-3.73a1.16,1.16,0,0,1-.14-2.31l9.19-1.12a1.13,1.13,0,0,1,1.29,1,1.15,1.15,0,0,1-1,1.29l-9.2,1.13Zm30.65-3.74a1.16,1.16,0,0,1-.14-2.31l9.19-1.12a1.12,1.12,0,0,1,1.29,1,1.16,1.16,0,0,1-1,1.29l-9.2,1.12Zm30.65-3.74a1.16,1.16,0,0,1-.14-2.31l9.19-1.12a1.14,1.14,0,0,1,1.29,1,1.16,1.16,0,0,1-1,1.29l-9.2,1.12Zm-170.57-.57a1.18,1.18,0,0,1-.83-.35,54.29,54.29,0,0,1-5.92-7.37,1.16,1.16,0,0,1,1.92-1.29,50.59,50.59,0,0,0,5.67,7.05,1.16,1.16,0,0,1,0,1.64A1.2,1.2,0,0,1,2294.26,2563.15Zm201.22-3.17a1.16,1.16,0,0,1-.14-2.31l9.19-1.12a1.13,1.13,0,0,1,1.29,1,1.16,1.16,0,0,1-1,1.29l-9.2,1.12Zm30.65-3.74a1.16,1.16,0,0,1-.14-2.31l9.19-1.12a1.16,1.16,0,0,1,.28,2.3l-9.19,1.12Zm30.65-3.74a1.15,1.15,0,0,1-.14-2.3l9.19-1.13a1.16,1.16,0,0,1,.29,2.3l-9.2,1.12Zm30.65-3.74a1.15,1.15,0,0,1-.14-2.3l9.19-1.12a1.13,1.13,0,0,1,1.29,1,1.15,1.15,0,0,1-1,1.29l-9.2,1.12Zm30.65-3.73a1.16,1.16,0,0,1-.14-2.31l9.19-1.12a1.12,1.12,0,0,1,1.29,1,1.15,1.15,0,0,1-1,1.29l-9.2,1.13Zm30.65-3.74a1.16,1.16,0,0,1-.14-2.31l9.19-1.12a1.15,1.15,0,1,1,.29,2.29l-9.2,1.13Zm30.65-3.74a1.16,1.16,0,0,1-.14-2.31l9.2-1.12a1.14,1.14,0,0,1,1.28,1,1.16,1.16,0,0,1-1,1.29l-9.19,1.12ZM2280.45,2536a1.17,1.17,0,0,1-1.14-1l-1.48-9.16a1.15,1.15,0,0,1,2.28-.37l1.48,9.13a1.16,1.16,0,0,1-.94,1.34Zm429.58-2.23a1.16,1.16,0,0,1-.14-2.31l9.19-1.12a1.13,1.13,0,0,1,1.29,1,1.16,1.16,0,0,1-1,1.29l-9.2,1.12Zm29.89-6.66a1.16,1.16,0,0,1-.57-2.16,36.75,36.75,0,0,0,7.18-5.35,1.16,1.16,0,1,1,1.6,1.68,39.28,39.28,0,0,1-7.64,5.68A1.16,1.16,0,0,1,2739.92,2527.15Zm-464.38-21.59a1.16,1.16,0,0,1-1.14-1l-1.47-9.14a1.15,1.15,0,0,1,1-1.33,1.13,1.13,0,0,1,1.33,1l1.47,9.14a1.15,1.15,0,0,1-1,1.33Zm482.51-2.35a1.45,1.45,0,0,1-.28,0,1.15,1.15,0,0,1-.84-1.4,37.13,37.13,0,0,0,1.06-8.08v-.83a1.17,1.17,0,0,1,1.16-1.15h0a1.17,1.17,0,0,1,1.15,1.18l0,.85a39.52,39.52,0,0,1-1.13,8.59A1.14,1.14,0,0,1,2758.05,2503.21Zm-487.41-28.14a1.16,1.16,0,0,1-1.15-1L2268,2465a1.15,1.15,0,0,1,2.28-.37l1.47,9.15a1.17,1.17,0,0,1-1,1.33Zm488.66-2.65a1.15,1.15,0,0,1-1.16-1.15q0-4.5-.11-9.25a1.16,1.16,0,0,1,1.14-1.18,1.12,1.12,0,0,1,1.18,1.14c.05,3.17.08,6.27.1,9.27a1.16,1.16,0,0,1-1.15,1.17Zm-493.56-27.84a1.16,1.16,0,0,1-1.15-1l-1.47-9.15a1.15,1.15,0,0,1,1-1.32,1.14,1.14,0,0,1,1.33,1l1.47,9.14a1.16,1.16,0,0,1-1,1.33Zm492.82-3a1.16,1.16,0,0,1-1.16-1.11c-.13-3-.27-6.12-.44-9.24a1.15,1.15,0,0,1,1.09-1.22,1.09,1.09,0,0,1,1.22,1.09c.17,3.13.31,6.23.44,9.27a1.15,1.15,0,0,1-1.1,1.21Zm-497.72-27.44a1.18,1.18,0,0,1-1.15-1l-1.47-9.15a1.16,1.16,0,0,1,2.29-.37l1.47,9.15a1.15,1.15,0,0,1-1,1.32Zm495.83-3.39a1.16,1.16,0,0,1-1.15-1.06q-.36-4.58-.8-9.22a1.16,1.16,0,0,1,1.05-1.26,1.13,1.13,0,0,1,1.26,1q.42,4.65.8,9.24a1.16,1.16,0,0,1-1.06,1.25Zm-500.74-27.1a1.15,1.15,0,0,1-1.14-1l-1.66-10.33,4.77-.61a1.13,1.13,0,0,1,1.29,1,1.15,1.15,0,0,1-1,1.3l-2.39.31,1.28,8a1.16,1.16,0,0,1-1,1.33Zm497.61-3.62a1.16,1.16,0,0,1-1.15-1c-.38-3.05-.79-6.1-1.21-9.18a1.15,1.15,0,0,1,1-1.3,1.13,1.13,0,0,1,1.3,1c.43,3.08.83,6.14,1.22,9.2a1.16,1.16,0,0,1-1,1.29Zm-474.05-8.72a1.16,1.16,0,0,1-.15-2.31l9.18-1.18a1.12,1.12,0,0,1,1.3,1,1.16,1.16,0,0,1-1,1.3l-9.19,1.18Zm30.62-3.92a1.16,1.16,0,0,1-.15-2.31l9.19-1.17a1.11,1.11,0,0,1,1.3,1,1.16,1.16,0,0,1-1,1.29l-9.19,1.18Zm30.63-3.92a1.16,1.16,0,0,1-.15-2.31l9.19-1.18a1.14,1.14,0,0,1,1.3,1,1.16,1.16,0,0,1-1,1.29l-9.19,1.18Zm30.63-3.92a1.16,1.16,0,0,1-.15-2.31l9.19-1.17a1.1,1.1,0,0,1,1.29,1,1.15,1.15,0,0,1-1,1.29l-9.19,1.18Zm30.62-3.92a1.16,1.16,0,0,1-.15-2.31l9.19-1.17a1.11,1.11,0,0,1,1.3,1,1.16,1.16,0,0,1-1,1.29l-9.19,1.18Zm30.63-3.92a1.16,1.16,0,0,1-.15-2.31l9.19-1.17a1.13,1.13,0,0,1,1.3,1,1.17,1.17,0,0,1-1,1.3l-9.19,1.17Zm316.34-2.22a1.15,1.15,0,0,1-1.14-1q-.81-4.53-1.69-9.08a1.16,1.16,0,0,1,.92-1.36,1.15,1.15,0,0,1,1.35.92c.6,3,1.16,6.08,1.7,9.12a1.16,1.16,0,0,1-.94,1.34A.71.71,0,0,1,2749,2349.45Zm-285.71-1.7a1.16,1.16,0,0,1-.15-2.31l9.19-1.17a1.11,1.11,0,0,1,1.3,1,1.17,1.17,0,0,1-1,1.3l-9.19,1.17Zm30.63-3.92a1.15,1.15,0,0,1-.15-2.3l9.19-1.18a1.11,1.11,0,0,1,1.29,1,1.16,1.16,0,0,1-1,1.3l-9.19,1.17Zm30.62-3.92a1.16,1.16,0,0,1-.15-2.31l9.19-1.17a1.12,1.12,0,0,1,1.3,1,1.17,1.17,0,0,1-1,1.3l-9.19,1.17Zm30.63-3.92a1.15,1.15,0,0,1-.15-2.3l9.19-1.18a1.14,1.14,0,0,1,1.3,1,1.16,1.16,0,0,1-1,1.3l-9.19,1.17Zm30.63-3.92a1.15,1.15,0,0,1-.15-2.3l9.19-1.18a1.14,1.14,0,0,1,1.3,1,1.16,1.16,0,0,1-1,1.3l-9.18,1.17Zm30.62-3.91a1.16,1.16,0,0,1-.14-2.31l9.18-1.18a1.1,1.1,0,0,1,1.3,1,1.16,1.16,0,0,1-1,1.3l-9.19,1.18Zm30.63-3.92a1.17,1.17,0,0,1-1.15-1,1.16,1.16,0,0,1,1-1.29l9.19-1.18a1.11,1.11,0,0,1,1.3,1,1.16,1.16,0,0,1-1,1.3l-9.19,1.18Zm30.63-3.92a1.16,1.16,0,0,1-.15-2.31l9.19-1.18a1.13,1.13,0,0,1,1.3,1,1.16,1.16,0,0,1-1,1.29l-9.18,1.18Zm65-1.1a1.15,1.15,0,0,1-1.12-.88c-.49-2-1-4-1.49-6l-1,.13a1.13,1.13,0,0,1-1.29-1,1.15,1.15,0,0,1,1-1.3l3-.39.25,1c.61,2.33,1.19,4.67,1.76,7a1.16,1.16,0,0,1-.85,1.4Zm-34.4-2.82a1.16,1.16,0,0,1-.15-2.31l9.19-1.18a1.12,1.12,0,0,1,1.29,1,1.15,1.15,0,0,1-1,1.3l-9.18,1.18Z" transform="translate(-451.95 -476.76)"/><path class="cls-25" d="M2345.2,2236.66l-.45-13.23a10.14,10.14,0,0,1,6.87-6.84c12.39-3.63,43.29-11.18,59.83-1.83l4.2,14.9Z" transform="translate(-451.95 -476.76)"/><path class="cls-26" d="M2383.09,2219a18.37,18.37,0,0,1-8.75,1.11,8,8,0,0,1-7-6.88l-5.24-40.93,20.83-2.67,5.23,40.9A8,8,0,0,1,2383.09,2219Z" transform="translate(-451.95 -476.76)"/><path class="cls-27" d="M2546.93,2210.85l-.45-13.23a10.09,10.09,0,0,1,6.87-6.84c12.38-3.63,43.28-11.18,59.83-1.83l4.19,14.9Z" transform="translate(-451.95 -476.76)"/><path class="cls-28" d="M2584.81,2193.22a18.35,18.35,0,0,1-8.75,1.11,8,8,0,0,1-7-6.89l-5.79-45.24,20.82-2.66,5.79,45.21A8,8,0,0,1,2584.81,2193.22Z" transform="translate(-451.95 -476.76)"/><path class="cls-29" d="M2361.26,2182.63l223-36.07a10.9,10.9,0,0,0,9.19-10.19,92.2,92.2,0,0,0-2.94-28.48,26,26,0,0,0-27.84-18.66c-41.91,4.35-148.28,18-203.94,48.69a20.64,20.64,0,0,0-10.55,15.79c-.71,6.35-.65,14.69,2.37,22.81A9.73,9.73,0,0,0,2361.26,2182.63Z" transform="translate(-451.95 -476.76)"/><path class="cls-30" d="M2355.76,2173.59a3.08,3.08,0,0,1-3-2.39,55.45,55.45,0,0,1-.85-17.81,20.88,20.88,0,0,1,12.3-16.18c12.09-5.3,35.33-14.65,55-17.73a3.09,3.09,0,0,1,1,6.11c-19.68,3.07-44,13.1-53.47,17.27a14.71,14.71,0,0,0-8.65,11.37,49.23,49.23,0,0,0,.75,15.58,3.09,3.09,0,0,1-2.31,3.7A2.92,2.92,0,0,1,2355.76,2173.59Z" transform="translate(-451.95 -476.76)"/><path class="cls-31" d="M2240.63,2244.86c72.24-10.18,384.85-53.52,477.19-54.19a18.64,18.64,0,0,1,17.74,12.3c8.49,23.6,26.51,78.65,32.39,134.75a16.34,16.34,0,0,1-11.29,17.15l-202.54,65.83-73.73,9.43-226.78-15.66a17.44,17.44,0,0,1-16-14.27c-5-28-15.73-93.69-13.56-137.17A19.29,19.29,0,0,1,2240.63,2244.86Z" transform="translate(-451.95 -476.76)"/><path class="cls-24" d="M2479.86,2413.18h-.07l-9.25-.64a1.16,1.16,0,0,1-1.07-1.24,1.23,1.23,0,0,1,1.23-1.07l9.24.64a1.16,1.16,0,0,1-.08,2.31Zm8.45-1.08a1.16,1.16,0,0,1-.15-2.31l9.19-1.17a1.09,1.09,0,0,1,1.29,1,1.17,1.17,0,0,1-1,1.3l-9.19,1.17Zm-39.25-1H2449l-9.24-.64a1.15,1.15,0,0,1-1.08-1.23,1.24,1.24,0,0,1,1.24-1.08l9.24.64a1.16,1.16,0,0,1-.08,2.31Zm-30.8-2.13h-.08l-9.24-.63a1.17,1.17,0,0,1-1.08-1.24,1.27,1.27,0,0,1,1.23-1.08l9.24.64a1.16,1.16,0,0,1-.07,2.31Zm100.67-.74a1.16,1.16,0,0,1-.14-2.31l9.19-1.17a1.1,1.1,0,0,1,1.29,1,1.17,1.17,0,0,1-1,1.3l-9.19,1.17Zm-131.48-1.38h-.07l-9.25-.63a1.17,1.17,0,0,1-1.07-1.24,1.26,1.26,0,0,1,1.23-1.08l9.24.64a1.16,1.16,0,0,1-.08,2.32Zm-30.8-2.13h-.08l-9.24-.64a1.17,1.17,0,0,1-1.08-1.24,1.26,1.26,0,0,1,1.24-1.07l9.24.64a1.16,1.16,0,0,1-.08,2.31Zm192.91-.41a1.16,1.16,0,0,1-.14-2.31l.59-.07,8-2.63a1.16,1.16,0,1,1,.71,2.2l-9,2.8Zm-223.71-1.72h-.08l-9.24-.64a1.15,1.15,0,0,1-1.08-1.23,1.24,1.24,0,0,1,1.23-1.08l9.24.64a1.17,1.17,0,0,1,1.08,1.23A1.15,1.15,0,0,1,2325.85,2402.54Zm-30.81-2.13H2295l-9.24-.63a1.16,1.16,0,0,1-1.07-1.24,1.23,1.23,0,0,1,1.23-1.08l9.24.64a1.16,1.16,0,0,1-.08,2.31Zm-30.8-2.12h-.08l-9.86-.68-.17-.88a1.28,1.28,0,0,1,.9-1.48,1.16,1.16,0,0,1,.92.16l8.37.57a1.16,1.16,0,0,1-.08,2.32Zm314.71-3.47a1.16,1.16,0,0,1-.36-2.26l8.81-2.86a1.18,1.18,0,0,1,1.46.75,1.16,1.16,0,0,1-.74,1.46l-8.81,2.86A1.49,1.49,0,0,1,2579,2394.82Zm29.37-9.54a1.16,1.16,0,0,1-.36-2.26l8.81-2.86a1.18,1.18,0,0,1,1.46.74,1.16,1.16,0,0,1-.75,1.46l-8.81,2.86A1.07,1.07,0,0,1,2608.32,2385.28Zm-356.71-9.21a1.17,1.17,0,0,1-1.15-1c-.46-2.93-.95-6-1.43-9.17a1.17,1.17,0,0,1,1-1.32,1.18,1.18,0,0,1,1.32,1c.48,3.17,1,6.23,1.42,9.16a1.15,1.15,0,0,1-1,1.32Zm386.07-.33a1.16,1.16,0,0,1-.36-2.26l8.81-2.87a1.16,1.16,0,0,1,1.46.75,1.14,1.14,0,0,1-.74,1.45l-8.81,2.87A1.13,1.13,0,0,1,2637.68,2375.74Zm29.36-9.55a1.16,1.16,0,0,1-.36-2.26l8.81-2.86a1.17,1.17,0,0,1,1.46.74,1.15,1.15,0,0,1-.74,1.46l-8.81,2.86A1.13,1.13,0,0,1,2667,2366.19Zm29.37-9.54a1.16,1.16,0,0,1-.36-2.26l8.81-2.86a1.16,1.16,0,1,1,.72,2.2l-8.81,2.86A1.13,1.13,0,0,1,2696.41,2356.65Zm29.37-9.54a1.16,1.16,0,0,1-1.1-.8,1.14,1.14,0,0,1,.74-1.46l8.81-2.87a1.16,1.16,0,0,1,.71,2.2l-8.81,2.87A1.07,1.07,0,0,1,2725.78,2347.11Zm-478.63-1.62a1.14,1.14,0,0,1-1.14-1c-.4-3-.78-6.1-1.16-9.2a1.17,1.17,0,0,1,1-1.29,1.15,1.15,0,0,1,1.29,1c.37,3.09.76,6.16,1.15,9.18a1.15,1.15,0,0,1-1,1.3Zm502.07-11.73a1.16,1.16,0,0,1-1.15-1c-.38-3.06-.79-6.12-1.24-9.16a1.15,1.15,0,0,1,1-1.31,1.13,1.13,0,0,1,1.32,1c.44,3.07.86,6.13,1.24,9.21a1.15,1.15,0,0,1-1,1.29Zm-505.48-19a1.15,1.15,0,0,1-1.15-1.06c-.28-3.09-.53-6.18-.77-9.25a1.16,1.16,0,0,1,2.32-.17q.34,4.59.75,9.22a1.15,1.15,0,0,1-1,1.25Zm500.62-11.51a1.16,1.16,0,0,1-1.14-.94q-.9-4.57-1.84-9.06a1.16,1.16,0,0,1,2.27-.48c.63,3,1.25,6,1.84,9.1a1.16,1.16,0,0,1-.91,1.36ZM2241.88,2284a1.16,1.16,0,0,1-1.16-1.14c-.06-2.5-.09-5-.09-7.39v-1.91a1.16,1.16,0,0,1,1.15-1.15h0a1.15,1.15,0,0,1,1.15,1.17v1.89q0,3.6.09,7.34a1.17,1.17,0,0,1-1.13,1.19Zm495.77-10.83a1.15,1.15,0,0,1-1.12-.88q-1.14-4.56-2.31-9a1.14,1.14,0,0,1,.82-1.41,1.17,1.17,0,0,1,1.42.82c.77,2.93,1.55,5.93,2.31,9a1.15,1.15,0,0,1-.84,1.4A.9.9,0,0,1,2737.65,2273.12Zm-484.34-10.67a1.16,1.16,0,0,1-.16-2.31l9.18-1.28a1.16,1.16,0,1,1,.31,2.29l-9.17,1.29Zm30.59-4.25a1.16,1.16,0,0,1-.15-2.31l9.17-1.26a1.14,1.14,0,0,1,1.31,1,1.15,1.15,0,0,1-1,1.3l-9.18,1.27Zm30.61-4.19a1.16,1.16,0,0,1-.15-2.31l9.18-1.24a1.16,1.16,0,1,1,.31,2.29l-9.18,1.25Zm30.61-4.13a1.16,1.16,0,0,1-.15-2.31l9.18-1.23a1.15,1.15,0,0,1,1.31,1,1.17,1.17,0,0,1-1,1.3l-9.18,1.23Zm30.62-4.07a1.16,1.16,0,0,1-.15-2.31l9.19-1.21a1.16,1.16,0,1,1,.3,2.3l-9.19,1.21Zm353.72-2.48a1.16,1.16,0,0,1-1.11-.82c-.92-3.08-1.83-6-2.71-8.85a1.15,1.15,0,0,1,2.2-.7q1.34,4.24,2.73,8.88a1.15,1.15,0,0,1-.78,1.44A1,1,0,0,1,2729.46,2243.33Zm-323.09-1.53a1.15,1.15,0,0,1-.15-2.3l9.19-1.19a1.16,1.16,0,1,1,.3,2.3l-9.19,1.18Zm30.63-3.92a1.16,1.16,0,0,1-.14-2.31l9.19-1.16a1.12,1.12,0,0,1,1.29,1,1.15,1.15,0,0,1-1,1.29l-9.19,1.17Zm30.64-3.85a1.16,1.16,0,0,1-.14-2.31l9.19-1.14a1.12,1.12,0,0,1,1.29,1,1.15,1.15,0,0,1-1,1.29l-9.19,1.14Zm30.64-3.76a1.16,1.16,0,0,1-.13-2.31l9.19-1.1a1.12,1.12,0,0,1,1.29,1,1.17,1.17,0,0,1-1,1.29l-9.2,1.1Zm30.67-3.65a1.16,1.16,0,0,1-1.15-1,1.14,1.14,0,0,1,1-1.28l9.21-1.07a1.12,1.12,0,0,1,1.28,1,1.14,1.14,0,0,1-1,1.28l-9.21,1.07Zm30.68-3.51a1.16,1.16,0,0,1-.13-2.31l9.2-1a1.14,1.14,0,0,1,1.28,1,1.16,1.16,0,0,1-1,1.28l-9.21,1Zm30.69-3.35a1.16,1.16,0,0,1-1.15-1,1.14,1.14,0,0,1,1-1.27l9.21-1a1.16,1.16,0,1,1,.25,2.3l-9.22,1Zm30.72-3.14a1.16,1.16,0,0,1-.11-2.31l9.23-.89a1.13,1.13,0,0,1,1.26,1,1.16,1.16,0,0,1-1.05,1.26l-9.22.89Zm98.88-2.67a1.15,1.15,0,0,1-1.09-.78l-1.18-3.31-4.21.06h0a1.16,1.16,0,0,1,0-2.32l4.55-.06a1.81,1.81,0,0,1,1.74,1.14l1.33,3.72a1.16,1.16,0,0,1-.71,1.48A1.22,1.22,0,0,1,2719.92,2214Zm-68.13-.18a1.16,1.16,0,0,1-.1-2.31q4.74-.4,9.24-.77a1.16,1.16,0,1,1,.18,2.31l-9.22.77Zm30.79-2.38a1.16,1.16,0,0,1-.08-2.31q4.82-.32,9.26-.57a1.09,1.09,0,0,1,1.22,1.09,1.15,1.15,0,0,1-1.09,1.22q-4.42.25-9.24.57Z" transform="translate(-451.95 -476.76)"/><path class="cls-32" d="M2551.14,2452.54l-64.59,8.26a16.81,16.81,0,0,1-18.47-12.54l-15.42-61.19a16.8,16.8,0,0,1,14.22-20.74l77.59-9.93a16.81,16.81,0,0,1,19,16l2.41,62.86A16.82,16.82,0,0,1,2551.14,2452.54Z" transform="translate(-451.95 -476.76)"/><path class="cls-33" d="M2541.73,2442.12l-49.16,6.29a12.8,12.8,0,0,1-14.06-9.54l-11.73-46.58a12.78,12.78,0,0,1,10.82-15.78l59.06-7.56a12.78,12.78,0,0,1,14.43,12.16l1.84,47.85A12.79,12.79,0,0,1,2541.73,2442.12Z" transform="translate(-451.95 -476.76)"/><path class="cls-34" d="M2503.32,1946.81c15.23,63,15.64,124.55,13.32,147a17.46,17.46,0,0,1-16.15,15.65c-9.63.67-22.74,1.56-34.45,2.23-12.88.75-27.17-7.39-36.73-14.19a5.75,5.75,0,0,0-8.47,7.26c4.7,9.19,12.85,16.42,20.95,22.57,4.87,3.7,21.05,10.28,19.92,17.56a13,13,0,0,1-3.23,6.09c-9,10.79-22.6,16.55-36,20.67a10,10,0,0,0-4.65,2.38c-.33,8.68,26.38,18.33,33.28,20.62a76.52,76.52,0,0,0,32.13,3.73c26.88-2.83,51.7-21.38,66.18-43.75,38.7-59.8,58.71-132,66-187.25C2579.41,1931.36,2525.06,1940.48,2503.32,1946.81Z" transform="translate(-451.95 -476.76)"/><path class="cls-35" d="M2615.42,1973c28.71-216.9-138.44-383.68-138.44-383.68l-99.45,115.94c75.5,94.11,111.39,180.35,127.79,248.08C2527.06,1947.05,2579.41,1937,2615.42,1973Z" transform="translate(-451.95 -476.76)"/><path class="cls-36" d="M2503,1952.32a6.15,6.15,0,0,1-6-4.71c-20.21-83.5-62.81-166.16-126.61-245.68a6.16,6.16,0,0,1,9.61-7.71c64.93,81,108.33,165.23,129,250.49a6.15,6.15,0,0,1-4.54,7.43A6.06,6.06,0,0,1,2503,1952.32Z" transform="translate(-451.95 -476.76)"/><path class="cls-37" d="M1156.06,3238.15a12.16,12.16,0,0,0-.32-3.21c-16-63.41-95.38-102.9-95.38-102.9l-31.46,2.46c-18.09,55.89-15.76,90.17-12.86,105.44.08.42.21.83.33,1.25C1042.32,3243.5,1095.73,3245,1156.06,3238.15Z" transform="translate(-451.95 -476.76)"/><path class="cls-38" d="M1016.37,3241.19c1.4,5.09,5.16,9.06,10,10.08,36.91,7.76,95.58,1.51,120.22-1.71,5.43-.71,9.4-5.73,9.49-11.41C1095.73,3245,1042.32,3243.5,1016.37,3241.19Z" transform="translate(-451.95 -476.76)"/><path class="cls-39" d="M1016.25,3087.65l13.33,64.14a10.46,10.46,0,0,0,9,8.62,88.77,88.77,0,0,0,20.64-.32c6.87-1,11.66-8,10.44-15.49l-9.26-56.95Z" transform="translate(-451.95 -476.76)"/><path class="cls-40" d="M1292.3,3240.37c-34.74-1-52.71-5.06-62-8.86,0,3.46,0,7,.11,10.62.12,3.89,3,7,6.54,7l190.76-1.23c6.09,0,9.65-7.1,7-12.68C1409.71,3237.25,1346,3241.88,1292.3,3240.37Z" transform="translate(-451.95 -476.76)"/><path class="cls-41" d="M1434.72,3235.19a8.65,8.65,0,0,0-.76-1.44c-16.84-23.54-59.75-70.41-144.53-90.74l-40.68-1.29s-18.11,31.48-18.45,89.79c9.29,3.8,27.26,7.89,62,8.86C1346,3241.88,1409.71,3237.25,1434.72,3235.19Z" transform="translate(-451.95 -476.76)"/><path class="cls-42" d="M1239.4,3082c.64,3,9.1,48.64,12.38,66.33a8.85,8.85,0,0,0,8,7.51c7,.39,18.2.44,27.86-2.19,5.21-1.41,8.71-6.72,8.34-12.62l-4.55-72.19Z" transform="translate(-451.95 -476.76)"/><path class="cls-43" d="M1208.58,2239.33s56,384.47,96.33,842c.75,8.52-6,15.93-14.41,17.69-12.34,2.6-30.47,5.69-45.48,5.27a16.86,16.86,0,0,1-16.06-14.07c-13.75-80.67-111.91-513.6-137.67-608.88,0,0-29.59,404.74-20.13,614.72a10,10,0,0,1-8.78,10.35,167.4,167.4,0,0,1-36.51-.1A13.33,13.33,0,0,1,1014,3095c-9.8-68.27-66.19-474.64-63.79-767.37.13-16.51,19.37-152.15,19.37-152.15Z" transform="translate(-451.95 -476.76)"/><path class="cls-44" d="M961.17,2261.49a15.8,15.8,0,0,1-10.39-13.33c-7.44-72.19-43.47-519.77,184-703.88,0,0,13-34.13,120.25,49.76s49.81,171.81,24.14,293.08c-31.06,146.75-85.55,266.71-61.44,357a12.51,12.51,0,0,1-7.67,15C1126.75,2289.84,1043.8,2290.85,961.17,2261.49Z" transform="translate(-451.95 -476.76)"/><path class="cls-45" d="M1223.47,1410.17c-.07,6.37-90.89,135.37-90.89,135.37s16.3,32.1,94.12,58.17l67.18-138.12Z" transform="translate(-451.95 -476.76)"/><path class="cls-46" d="M1295,1336.26s32.32,74.23,34.49,113.19,10.56,64.24-34.49,72.09-83-14.6-103.56-53.41c0,0-32.21-59.8-25-84.29S1295,1336.26,1295,1336.26Z" transform="translate(-451.95 -476.76)"/><path class="cls-47" d="M1206.8,1440.23l2.57-1.13a6.19,6.19,0,0,0,3-8.5c-6.35-12.27-18.74-40.4-2.74-47,20.62-8.46,102.29-25.11,119.91-54.09,16.94-27.85,1.93-63.81-20.62-74a3.1,3.1,0,0,0-4.06,1.32l-1.88,3.56a3.07,3.07,0,0,1-5.65-.58h0a3,3,0,0,0-5.51-.79c-5.42,8.67-20,22.72-59.15,29.94-55.57,10.26-92.32,32.75-93.23,71.16a3.07,3.07,0,0,1-4.74,2.52c-4.1-2.5-10.67-3.67-19.45,3.71-15.26,12.83-9,46.12,24.45,73.51a3,3,0,0,1-.15,4.9c-6.07,4-15.11,13.35,8.32,25.87,24.24,13,42.34,11.89,49.3,10.74a3,3,0,0,0,2.48-3.68l-7.44-33.75a3.06,3.06,0,0,1,3-3.72Z" transform="translate(-451.95 -476.76)"/><path class="cls-48" d="M1208.2,1447.35s-12.32-47.42-33.58-34.12,11,53.13,28.12,54.9Z" transform="translate(-451.95 -476.76)"/><path class="cls-49" d="M1289.49,1633l6.26,168.17a464,464,0,0,0,50.84,14.44c10.09-32.47,32.3-72.32,50.48-102C1330.26,1690,1289.49,1633,1289.49,1633Z" transform="translate(-451.95 -476.76)"/><path class="cls-50" d="M1623.06,1630.1c-91.65,99-165.83,104.78-226,83.52-18.18,29.63-40.39,69.48-50.48,102,244.75,54,302.39-171,302.39-171Z" transform="translate(-451.95 -476.76)"/><path class="cls-51" d="M1641.64,1619.59s10.56-11.33,30.1-7.77,36.93,10.35,49.11,0,16.45,3.54,16.45,3.54l-36.45,27.71Z" transform="translate(-451.95 -476.76)"/><path class="cls-52" d="M1619.84,1639s7.23-30.24,29-26.1,71.29,31.06,84.05,26.1,29.06-16.82,37.43-12.63l-14.74,18.33s37.89-21.86,44.41-8.43l-63,35.48S1644.74,1662.48,1619.84,1639Z" transform="translate(-451.95 -476.76)"/><path class="cls-53" d="M1187.75,1853.06s172.31,144.31,358.37,81.34a44.36,44.36,0,0,1,34.93,2.63l53.49,28.26a47.77,47.77,0,0,0,63.29-17.72c7.43-12.44,13.77-26.63,15-40.24L1608.19,1865l7.72-12.83s-51.1-4.33-64.48,32.29c0,0-97.33,40.49-261.49-140.07C1289.94,1744.35,1215.45,1807.69,1187.75,1853.06Z" transform="translate(-451.95 -476.76)"/><path class="cls-54" d="M1178.48,1851.57a2.87,2.87,0,0,1-1.65-.51c-72.55-49-106.68-128.13-107-128.93a2.95,2.95,0,1,1,5.43-2.3c.33.77,33.83,78.33,104.89,126.35a2.95,2.95,0,0,1-1.65,5.39Z" transform="translate(-451.95 -476.76)"/><path class="cls-55" d="M1286.54,1741.91a3,3,0,0,1-2.48-1.36c-.22-.34-22.38-34.84-64.6-110.43-13-23.25-30-38-50.71-43.75-34.22-9.56-67.21,8.79-67.53,9a3,3,0,0,1-2.92-5.13c1.43-.8,35.35-19.78,72-9.53,22.26,6.21,40.54,21.87,54.32,46.56,42.11,75.4,64.19,109.78,64.41,110.12a2.95,2.95,0,0,1-2.48,4.55Z" transform="translate(-451.95 -476.76)"/></g></g></svg>